# xmcd CD database file
#
# Track frame offsets:
#	150
#	24487
#	60852
#	95312
#	134730
#	171417
#
# Disc length: 2884 seconds
#
# Revision: 0
# Processed by: cddbd v1.5.2PL0 Copyright (c) Steve Scherf et al.
# Submitted via: CDex 1.70beta2
#
DISCID=490b4206
DTITLE=Gomer Edwin Evans - Body Music 2
DYEAR=1900
DGENRE=New Age
TTITLE0=Body Music
TTITLE1=Wild Roses
TTITLE2=Echoes of Spring
TTITLE3=	Layed Back
TTITLE4=Drifting Away
TTITLE5=Body waves
EXTD=
EXTT0=
EXTT1=
EXTT2=
EXTT3=
EXTT4=
EXTT5=
PLAYORDER=
